# xmcd
# Copyright (C) 1995-1998 Ti Kan
#
# Track frame offsets:
#       150
#       12973
#       32829
#       49293
#       65473
#       84250
#       93991
#       113388
#       129247
#       141439
#       156101
#       171682
#       189429
#
# Disc length: 2981 seconds
#
# Revision: 2
# Processed by: cddbd v1.5.2PL0 Copyright (c) Steve Scherf et al.
# Submitted via: CD-Transfer v1.0
#
DISCID=a80ba30d
DTITLE=Karsumpu - Grüene Zweig
DYEAR=2007
DGENRE=
TTITLE0=Chueche
TTITLE1=Grüene Zweig
TTITLE2=Guete Kolleg
TTITLE3=Ärdbeerrote Hagebuttestruch
TTITLE4=Angers
TTITLE5=Waschbäre
TTITLE6=Apathisch
TTITLE7=Popstar
TTITLE8=Schimmer
TTITLE9=Tagebuech
TTITLE10=Dorn Im Oug
TTITLE11=Bananeboum
TTITLE12=Überübermorn
EXTD=
EXTT0=
EXTT1=
EXTT2=
EXTT3=
EXTT4=
EXTT5=
EXTT6=
EXTT7=
EXTT8=
EXTT9=
EXTT10=
EXTT11=
EXTT12=
PLAYORDER=
